<svg xmlns="http://www.w3.org/2000/svg" xmlns:xlink="http://www.w3.org/1999/xlink" width="840" height="581.04"><rect width="840" height="581.04" rx="5" ry="5" class="a"/><svg y="0%" x="0%"><circle cx="20" cy="20" r="6" fill="#ff5f58"/><circle cx="40" cy="20" r="6" fill="#ffbd2e"/><circle cx="60" cy="20" r="6" fill="#18c132"/></svg><svg height="521.04" viewBox="0 0 80 52.104" width="800" x="15" xmlns="http://www.w3.org/2000/svg" xmlns:xlink="http://www.w3.org/1999/xlink" y="50"><style>@keyframes s{0%{transform:translateX(0)}4.5%{transform:translateX(-80px)}5.1%{transform:translateX(-160px)}5.4%{transform:translateX(-240px)}5.7%{transform:translateX(-320px)}6.5%{transform:translateX(-400px)}6.6%{transform:translateX(-480px)}21.6%{transform:translateX(-640px)}22.8%{transform:translateX(-720px)}29.9%{transform:translateX(-800px)}34.9%{transform:translateX(-880px)}47.9%{transform:translateX(-1040px)}48.1%{transform:translateX(-1120px)}51.5%{transform:translateX(-1440px)}51.6%{transform:translateX(-1760px)}67.8%{transform:translateX(-1840px)}68.1%{transform:translateX(-1920px)}68.6%{transform:translateX(-2000px)}68.8%{transform:translateX(-2160px)}69.1%{transform:translateX(-2240px)}69.9%{transform:translateX(-2320px)}70%{transform:translateX(-2400px)}to{transform:translateX(-2480px)}}.a{fill:#282d35}.f{fill:#66c2cd;font-weight:700}.f,.g,.h{white-space:pre}.g{fill:#b9c0cb;font-weight:700}.h{fill:#a8cc8c}.h,.i,.j{font-weight:700}.i{fill:#d290e4;white-space:pre}.j{fill:#e88388}.j,.m,.n{white-space:pre}.m{fill:#71bef2;font-weight:700}.n{fill:#b9c0cb}.o{fill:#71bef2}.o,.p,.u{white-space:pre}.p{fill:#dbab79;font-weight:700}.u{fill:#6f7783}</style><g font-family="Monaco,Consolas,Menlo,'Bitstream Vera Sans Mono','Powerline Symbols',monospace" font-size="1.67"><defs><symbol id="1"><text y="1.67" class="f">awesome-library</text><text x="16.032" y="1.67" class="g">…</text></symbol><symbol id="2"><text y="1.67" class="h">❯</text></symbol><symbol id="3"><text y="1.67" class="f">awesome-library</text><text x="16.032" y="1.67" class="g">on</text><text x="19.038" y="1.67" class="i"></text><text x="21.042" y="1.67" class="i">main</text><text x="26.052" y="1.67" class="j">[!?]</text><text x="31.062" y="1.67" class="g">via</text><text x="35.07" y="1.67" class="h">⬢</text><text x="37.074" y="1.67" class="h">v18.18.0</text></symbol><symbol id="4"><text y="1.67" class="h">❯</text><text x="2.004" y="1.67" style="white-space:pre" fill="#a8cc8c">yarn</text><text x="7.014" y="1.67" style="white-space:pre" fill="#dbab79">prepare</text></symbol><symbol id="5"><text y="1.67" class="m">ℹ</text><text x="2.004" y="1.67" class="n">Building</text><text x="11.022" y="1.67" class="n">target</text><text x="18.036" y="1.67" class="o">commonjs</text></symbol><symbol id="6"><text y="1.67" class="m">ℹ</text><text x="2.004" y="1.67" class="n">Cleaning</text><text x="11.022" y="1.67" class="n">up</text><text x="14.028" y="1.67" class="n">previous</text><text x="23.046" y="1.67" class="n">build</text><text x="29.058" y="1.67" class="n">at</text><text x="32.064" y="1.67" class="o">lib/commonjs</text></symbol><symbol id="7"><text y="1.67" class="m">ℹ</text><text x="2.004" y="1.67" class="n">Compiling</text><text x="12.024" y="1.67" class="o">1</text><text x="14.028" y="1.67" class="n">files</text><text x="20.04" y="1.67" class="n">in</text><text x="23.046" y="1.67" class="o">src</text><text x="27.054" y="1.67" class="n">with</text><text x="32.064" y="1.67" class="o">babel</text></symbol><symbol id="8"><text y="1.67" class="h">✔</text><text x="2.004" y="1.67" class="n">Wrote</text><text x="8.016" y="1.67" class="n">files</text><text x="14.028" y="1.67" class="n">to</text><text x="17.034" y="1.67" class="o">lib/commonjs</text></symbol><symbol id="9"><text y="1.67" class="m">ℹ</text><text x="2.004" y="1.67" class="n">Building</text><text x="11.022" y="1.67" class="n">target</text><text x="18.036" y="1.67" class="o">module</text></symbol><symbol id="10"><text y="1.67" class="m">ℹ</text><text x="2.004" y="1.67" class="n">Cleaning</text><text x="11.022" y="1.67" class="n">up</text><text x="14.028" y="1.67" class="n">previous</text><text x="23.046" y="1.67" class="n">build</text><text x="29.058" y="1.67" class="n">at</text><text x="32.064" y="1.67" class="o">lib/module</text></symbol><symbol id="11"><text y="1.67" class="h">✔</text><text x="2.004" y="1.67" class="n">Wrote</text><text x="8.016" y="1.67" class="n">files</text><text x="14.028" y="1.67" class="n">to</text><text x="17.034" y="1.67" class="o">lib/module</text></symbol><symbol id="12"><text y="1.67" class="m">ℹ</text><text x="2.004" y="1.67" class="n">Building</text><text x="11.022" y="1.67" class="n">target</text><text x="18.036" y="1.67" class="o">typescript</text></symbol><symbol id="13"><text y="1.67" class="m">ℹ</text><text x="2.004" y="1.67" class="n">Cleaning</text><text x="11.022" y="1.67" class="n">up</text><text x="14.028" y="1.67" class="n">previous</text><text x="23.046" y="1.67" class="n">build</text><text x="29.058" y="1.67" class="n">at</text><text x="32.064" y="1.67" class="o">lib/typescript</text></symbol><symbol id="14"><text y="1.67" class="m">ℹ</text><text x="2.004" y="1.67" class="n">Generating</text><text x="13.026" y="1.67" class="n">type</text><text x="18.036" y="1.67" class="n">definitions</text><text x="30.06" y="1.67" class="n">with</text><text x="35.07" y="1.67" class="o">tsc</text></symbol><symbol id="15"><text y="1.67" class="h">✔</text><text x="2.004" y="1.67" class="n">Wrote</text><text x="8.016" y="1.67" class="n">definition</text><text x="19.038" y="1.67" class="n">files</text><text x="25.05" y="1.67" class="n">to</text><text x="28.056" y="1.67" class="o">lib/typescript</text></symbol><symbol id="16"><text y="1.67" class="f">awesome-library</text><text x="16.032" y="1.67" class="g">took</text><text x="21.042" y="1.67" class="p">2.9s</text><text x="26.052" y="1.67" class="g">…</text></symbol><symbol id="17"><text y="1.67" class="f">awesome-library</text><text x="16.032" y="1.67" class="g">on</text><text x="19.038" y="1.67" class="i"></text><text x="21.042" y="1.67" class="i">main</text><text x="26.052" y="1.67" class="j">[!?]</text><text x="31.062" y="1.67" class="g">via</text><text x="35.07" y="1.67" class="h">⬢</text><text x="37.074" y="1.67" class="h">v18.18.0</text><text x="46.092" y="1.67" class="g">took</text><text x="51.102" y="1.67" class="p">2.9s</text></symbol><symbol id="a"><path fill="transparent" d="M0 0h80v24H0z"/></symbol><symbol id="b"><path fill="#6f7683" d="M0 0h1.102v2.171H0z"/></symbol></defs><path class="a" d="M0 0h80v52.104H0z"/><g style="animation-duration:9.075072s;animation-iteration-count:infinite;animation-name:s;animation-timing-function:steps(1,end)"><svg width="2560"><svg><use xlink:href="#a"/><use xlink:href="#b" x="-.004"/></svg><svg x="80"><use xlink:href="#a"/><use xlink:href="#b" x="-.004"/></svg><svg x="160"><use xlink:href="#a"/><use xlink:href="#b" x="1.996" y="2.146"/><use xlink:href="#1"/><use xlink:href="#2" y="2.171"/></svg><svg x="240"><use xlink:href="#a"/><use xlink:href="#b" x="1.996" y="2.146"/><use xlink:href="#1"/><use xlink:href="#2" y="2.171"/></svg><svg x="320"><use xlink:href="#a"/><use xlink:href="#b" x="1.996" y="2.146"/><text y="1.67" class="f">awesome-library</text><text x="16.032" y="1.67" class="g">via</text><text x="20.04" y="1.67" class="h">⬢</text><text x="22.044" y="1.67" class="h">v18.18.0</text><text x="31.062" y="1.67" class="g">…</text><use xlink:href="#2" y="2.171"/></svg><svg x="400"><use xlink:href="#a"/><use xlink:href="#b" x="1.996" y="2.146"/><text y="1.67" class="f">awesome-library</text><text x="16.032" y="1.67" class="g">via</text><text x="20.04" y="1.67" class="h">⬢</text><text x="22.044" y="1.67" class="h">v18.18.0</text><use xlink:href="#2" y="2.171"/></svg><svg x="480"><use xlink:href="#a"/><use xlink:href="#b" x="1.996" y="2.146"/><use xlink:href="#3"/><use xlink:href="#2" y="2.171"/></svg><svg x="560"><use xlink:href="#a"/><use xlink:href="#b" x="2.996" y="2.146"/><use xlink:href="#3"/><text y="3.841" class="h">❯</text><text x="2.004" y="3.841" class="j">y</text></svg><svg x="640"><use xlink:href="#a"/><use xlink:href="#b" x="2.996" y="2.146"/><use xlink:href="#3"/><text y="3.841" class="h">❯</text><text x="2.004" y="3.841" class="j">y</text><text x="3.006" y="3.841" class="u">arn</text><text x="7.014" y="3.841" class="u">prepare</text></svg><svg x="720"><use xlink:href="#a"/><use xlink:href="#b" x="3.996" y="2.146"/><use xlink:href="#3"/><text y="3.841" class="h">❯</text><text x="2.004" y="3.841" class="j">ya</text><text x="4.008" y="3.841" class="u">rn</text><text x="7.014" y="3.841" class="u">prepare</text></svg><svg x="800"><use xlink:href="#a"/><use xlink:href="#b" x="13.996" y="2.146"/><use xlink:href="#3"/><use xlink:href="#4" y="2.171"/></svg><svg x="880"><use xlink:href="#a"/><use xlink:href="#b" x="-.004" y="4.317"/><use xlink:href="#3"/><use xlink:href="#4" y="2.171"/></svg><svg x="960"><use xlink:href="#a"/><use xlink:href="#b" x="-.004" y="6.488"/><use xlink:href="#3"/><use xlink:href="#4" y="2.171"/><use xlink:href="#5" y="4.342"/></svg><svg x="1040"><use xlink:href="#a"/><use xlink:href="#b" x="-.004" y="8.659"/><use xlink:href="#3"/><use xlink:href="#4" y="2.171"/><use xlink:href="#5" y="4.342"/><use xlink:href="#6" y="6.513"/></svg><svg x="1120"><use xlink:href="#a"/><use xlink:href="#b" x="-.004" y="10.83"/><use xlink:href="#3"/><use xlink:href="#4" y="2.171"/><use xlink:href="#5" y="4.342"/><use xlink:href="#6" y="6.513"/><use xlink:href="#7" y="8.684"/></svg><svg x="1200"><use xlink:href="#a"/><use xlink:href="#b" x="-.004" y="13.001"/><use xlink:href="#3"/><use xlink:href="#4" y="2.171"/><use xlink:href="#5" y="4.342"/><use xlink:href="#6" y="6.513"/><use xlink:href="#7" y="8.684"/><use xlink:href="#8" y="10.855"/></svg><svg x="1280"><use xlink:href="#a"/><use xlink:href="#b" x="-.004" y="15.172"/><use xlink:href="#3"/><use xlink:href="#4" y="2.171"/><use xlink:href="#5" y="4.342"/><use xlink:href="#6" y="6.513"/><use xlink:href="#7" y="8.684"/><use xlink:href="#8" y="10.855"/><use xlink:href="#9" y="13.026"/></svg><svg x="1360"><use xlink:href="#a"/><use xlink:href="#b" x="-.004" y="17.343"/><use xlink:href="#3"/><use xlink:href="#4" y="2.171"/><use xlink:href="#5" y="4.342"/><use xlink:href="#6" y="6.513"/><use xlink:href="#7" y="8.684"/><use xlink:href="#8" y="10.855"/><use xlink:href="#9" y="13.026"/><use xlink:href="#10" y="15.197"/></svg><svg x="1440"><use xlink:href="#a"/><use xlink:href="#b" x="-.004" y="19.514"/><use xlink:href="#3"/><use xlink:href="#4" y="2.171"/><use xlink:href="#5" y="4.342"/><use xlink:href="#6" y="6.513"/><use xlink:href="#7" y="8.684"/><use xlink:href="#8" y="10.855"/><use xlink:href="#9" y="13.026"/><use xlink:href="#10" y="15.197"/><use xlink:href="#7" y="17.368"/></svg><svg x="1520"><use xlink:href="#a"/><use xlink:href="#b" x="-.004" y="21.685"/><use xlink:href="#3"/><use xlink:href="#4" y="2.171"/><use xlink:href="#5" y="4.342"/><use xlink:href="#6" y="6.513"/><use xlink:href="#7" y="8.684"/><use xlink:href="#8" y="10.855"/><use xlink:href="#9" y="13.026"/><use xlink:href="#10" y="15.197"/><use xlink:href="#7" y="17.368"/><use xlink:href="#11" y="19.539"/></svg><svg x="1600"><use xlink:href="#a"/><use xlink:href="#b" x="-.004" y="23.856"/><use xlink:href="#3"/><use xlink:href="#4" y="2.171"/><use xlink:href="#5" y="4.342"/><use xlink:href="#6" y="6.513"/><use xlink:href="#7" y="8.684"/><use xlink:href="#8" y="10.855"/><use xlink:href="#9" y="13.026"/><use xlink:href="#10" y="15.197"/><use xlink:href="#7" y="17.368"/><use xlink:href="#11" y="19.539"/><use xlink:href="#12" y="21.71"/></svg><svg x="1680"><use xlink:href="#a"/><use xlink:href="#b" x="-.004" y="26.027"/><use xlink:href="#3"/><use xlink:href="#4" y="2.171"/><use xlink:href="#5" y="4.342"/><use xlink:href="#6" y="6.513"/><use xlink:href="#7" y="8.684"/><use xlink:href="#8" y="10.855"/><use xlink:href="#9" y="13.026"/><use xlink:href="#10" y="15.197"/><use xlink:href="#7" y="17.368"/><use xlink:href="#11" y="19.539"/><use xlink:href="#12" y="21.71"/><use xlink:href="#13" y="23.881"/></svg><svg x="1760"><use xlink:href="#a"/><use xlink:href="#b" x="-.004" y="28.198"/><use xlink:href="#3"/><use xlink:href="#4" y="2.171"/><use xlink:href="#5" y="4.342"/><use xlink:href="#6" y="6.513"/><use xlink:href="#7" y="8.684"/><use xlink:href="#8" y="10.855"/><use xlink:href="#9" y="13.026"/><use xlink:href="#10" y="15.197"/><use xlink:href="#7" y="17.368"/><use xlink:href="#11" y="19.539"/><use xlink:href="#12" y="21.71"/><use xlink:href="#13" y="23.881"/><use xlink:href="#14" y="26.052"/></svg><svg x="1840"><use xlink:href="#a"/><use xlink:href="#b" x="-.004" y="30.369"/><use xlink:href="#3"/><use xlink:href="#4" y="2.171"/><use xlink:href="#5" y="4.342"/><use xlink:href="#6" y="6.513"/><use xlink:href="#7" y="8.684"/><use xlink:href="#8" y="10.855"/><use xlink:href="#9" y="13.026"/><use xlink:href="#10" y="15.197"/><use xlink:href="#7" y="17.368"/><use xlink:href="#11" y="19.539"/><use xlink:href="#12" y="21.71"/><use xlink:href="#13" y="23.881"/><use xlink:href="#14" y="26.052"/><use xlink:href="#15" y="28.223"/></svg><svg x="1920"><use xlink:href="#a"/><use xlink:href="#b" x="-.004" y="30.369"/><use xlink:href="#3"/><use xlink:href="#4" y="2.171"/><use xlink:href="#5" y="4.342"/><use xlink:href="#6" y="6.513"/><use xlink:href="#7" y="8.684"/><use xlink:href="#8" y="10.855"/><use xlink:href="#9" y="13.026"/><use xlink:href="#10" y="15.197"/><use xlink:href="#7" y="17.368"/><use xlink:href="#11" y="19.539"/><use xlink:href="#12" y="21.71"/><use xlink:href="#13" y="23.881"/><use xlink:href="#14" y="26.052"/><use xlink:href="#15" y="28.223"/></svg><svg x="2000"><use xlink:href="#a"/><use xlink:href="#b" x="1.996" y="32.54"/><use xlink:href="#3"/><use xlink:href="#4" y="2.171"/><use xlink:href="#5" y="4.342"/><use xlink:href="#6" y="6.513"/><use xlink:href="#7" y="8.684"/><use xlink:href="#8" y="10.855"/><use xlink:href="#9" y="13.026"/><use xlink:href="#10" y="15.197"/><use xlink:href="#7" y="17.368"/><use xlink:href="#11" y="19.539"/><use xlink:href="#12" y="21.71"/><use xlink:href="#13" y="23.881"/><use xlink:href="#14" y="26.052"/><use xlink:href="#15" y="28.223"/><use xlink:href="#16" y="30.394"/><use xlink:href="#2" y="32.565"/></svg><svg x="2080"><use xlink:href="#a"/><use xlink:href="#b" x="1.996" y="32.54"/><use xlink:href="#3"/><use xlink:href="#4" y="2.171"/><use xlink:href="#5" y="4.342"/><use xlink:href="#6" y="6.513"/><use xlink:href="#7" y="8.684"/><use xlink:href="#8" y="10.855"/><use xlink:href="#9" y="13.026"/><use xlink:href="#10" y="15.197"/><use xlink:href="#7" y="17.368"/><use xlink:href="#11" y="19.539"/><use xlink:href="#12" y="21.71"/><use xlink:href="#13" y="23.881"/><use xlink:href="#14" y="26.052"/><use xlink:href="#15" y="28.223"/><use xlink:href="#16" y="30.394"/><use xlink:href="#2" y="32.565"/></svg><svg x="2160"><use xlink:href="#a"/><use xlink:href="#b" x="1.996" y="32.54"/><use xlink:href="#3"/><use xlink:href="#4" y="2.171"/><use xlink:href="#5" y="4.342"/><use xlink:href="#6" y="6.513"/><use xlink:href="#7" y="8.684"/><use xlink:href="#8" y="10.855"/><use xlink:href="#9" y="13.026"/><use xlink:href="#10" y="15.197"/><use xlink:href="#7" y="17.368"/><use xlink:href="#11" y="19.539"/><use xlink:href="#12" y="21.71"/><use xlink:href="#13" y="23.881"/><use xlink:href="#14" y="26.052"/><use xlink:href="#15" y="28.223"/><use xlink:href="#16" y="30.394"/><use xlink:href="#2" y="32.565"/></svg><svg x="2240"><use xlink:href="#a"/><use xlink:href="#b" x="1.996" y="32.54"/><use xlink:href="#3"/><use xlink:href="#4" y="2.171"/><use xlink:href="#5" y="4.342"/><use xlink:href="#6" y="6.513"/><use xlink:href="#7" y="8.684"/><use xlink:href="#8" y="10.855"/><use xlink:href="#9" y="13.026"/><use xlink:href="#10" y="15.197"/><use xlink:href="#7" y="17.368"/><use xlink:href="#11" y="19.539"/><use xlink:href="#12" y="21.71"/><use xlink:href="#13" y="23.881"/><use xlink:href="#14" y="26.052"/><use xlink:href="#15" y="28.223"/><text y="32.064" class="f">awesome-library</text><text x="16.032" y="32.064" class="g">via</text><text x="20.04" y="32.064" class="h">⬢</text><text x="22.044" y="32.064" class="h">v18.18.0</text><text x="31.062" y="32.064" class="g">took</text><text x="36.072" y="32.064" class="p">2.9s</text><text x="41.082" y="32.064" class="g">…</text><use xlink:href="#2" y="32.565"/></svg><svg x="2320"><use xlink:href="#a"/><use xlink:href="#b" x="1.996" y="32.54"/><use xlink:href="#3"/><use xlink:href="#4" y="2.171"/><use xlink:href="#5" y="4.342"/><use xlink:href="#6" y="6.513"/><use xlink:href="#7" y="8.684"/><use xlink:href="#8" y="10.855"/><use xlink:href="#9" y="13.026"/><use xlink:href="#10" y="15.197"/><use xlink:href="#7" y="17.368"/><use xlink:href="#11" y="19.539"/><use xlink:href="#12" y="21.71"/><use xlink:href="#13" y="23.881"/><use xlink:href="#14" y="26.052"/><use xlink:href="#15" y="28.223"/><text y="32.064" class="f">awesome-library</text><text x="16.032" y="32.064" class="g">via</text><text x="20.04" y="32.064" class="h">⬢</text><text x="22.044" y="32.064" class="h">v18.18.0</text><text x="31.062" y="32.064" class="g">took</text><text x="36.072" y="32.064" class="p">2.9s</text><use xlink:href="#2" y="32.565"/></svg><svg x="2400"><use xlink:href="#a"/><use xlink:href="#b" x="1.996" y="32.54"/><use xlink:href="#3"/><use xlink:href="#4" y="2.171"/><use xlink:href="#5" y="4.342"/><use xlink:href="#6" y="6.513"/><use xlink:href="#7" y="8.684"/><use xlink:href="#8" y="10.855"/><use xlink:href="#9" y="13.026"/><use xlink:href="#10" y="15.197"/><use xlink:href="#7" y="17.368"/><use xlink:href="#11" y="19.539"/><use xlink:href="#12" y="21.71"/><use xlink:href="#13" y="23.881"/><use xlink:href="#14" y="26.052"/><use xlink:href="#15" y="28.223"/><use xlink:href="#17" y="30.394"/><use xlink:href="#2" y="32.565"/></svg><svg x="2480"><use xlink:href="#a"/><use xlink:href="#b" x="-.004" y="34.711"/><use xlink:href="#3"/><use xlink:href="#4" y="2.171"/><use xlink:href="#5" y="4.342"/><use xlink:href="#6" y="6.513"/><use xlink:href="#7" y="8.684"/><use xlink:href="#8" y="10.855"/><use xlink:href="#9" y="13.026"/><use xlink:href="#10" y="15.197"/><use xlink:href="#7" y="17.368"/><use xlink:href="#11" y="19.539"/><use xlink:href="#12" y="21.71"/><use xlink:href="#13" y="23.881"/><use xlink:href="#14" y="26.052"/><use xlink:href="#15" y="28.223"/><use xlink:href="#17" y="30.394"/><use xlink:href="#2" y="32.565"/></svg></svg></g></g></svg></svg>